<?xml version="1.0" encoding="UTF-8"?> <!DOCTYPE svg PUBLIC "-//W3C//DTD SVG 1.1//EN" "http://www.w3.org/Graphics/SVG/1.1/DTD/svg11.dtd">
<svg xmlns="http://www.w3.org/2000/svg" height="266" width="161" xmlns:xlink="http://www.w3.org/1999/xlink" version="1.11.1" style="shape-rendering:geometricPrecision; text-rendering:geometricPrecision; image-rendering:optimizeQuality; fill-rule:evenodd; clip-rule:evenodd">
<g style="fill:rgb(255,255,255)">
 <polygon points="0.0,0.0 161.0,0.0 161.0,266.0 0.0,266.0"/>
</g>
<g style="stroke:rgb(0,0,0);fill:rgb(255,255,255)">
 <g transform="translate(80.5,133.0) scale(1.0,-1.0)">
  <g transform="translate(-63.0,128.0)">
   <g style="stroke:rgb(153,153,153);fill:rgb(153,153,153)">
    <g transform="translate(28.71875,-16.0)">
     <path d="M 13.999993000000583 -1.3999997666674889e-2 A 14.0 14.0 0 1 0 14.0 0.0"/>
    </g>
   </g>
   <g style="stroke:rgb(0,112,191);stroke-width:2.0">
    <g transform="translate(26.71875,-14.0)">
     <line x1="0" y1="0" x2="17.71875" y2="-38.0"/>
    </g>
    <g transform="translate(26.71875,-14.0)">
     <line x1="0" y1="0" x2="-17.71875" y2="-27.0"/>
    </g>
   </g>
   <g style="stroke:rgb(102,178,104);fill:rgb(175,244,175);stroke-width:2.5">
    <g transform="translate(26.71875,-14.0)">
     <path d="M 13.999993000000583 -1.3999997666674889e-2 A 14.0 14.0 0 1 0 14.0 0.0"/>
    </g>
   </g>
   <g style="stroke:rgb(204,0,0);fill:rgb(204,0,0);text-anchor:middle;font-family:Arial;font-size:17.5px">
    <g transform="translate(26.71875,-20.0)">
     <g transform="scale(1 -1)">
      <text>2</text>
     </g>
    </g>
   </g>
   <g style="stroke:rgb(153,153,153);fill:rgb(153,153,153)">
    <g transform="translate(46.4375,-54.0)">
     <path d="M 13.999993000000583 -1.3999997666674889e-2 A 14.0 14.0 0 1 0 14.0 0.0"/>
    </g>
   </g>
   <g style="stroke:rgb(0,112,191);stroke-width:2.0">
    <g transform="translate(44.4375,-52.0)">
     <line x1="0" y1="0" x2="17.4375" y2="-38.0"/>
    </g>
    <g transform="translate(44.4375,-52.0)">
     <line x1="0" y1="0" x2="-17.4375" y2="-27.0"/>
    </g>
   </g>
   <g style="stroke:rgb(102,178,104);fill:rgb(175,244,175);stroke-width:2.5">
    <g transform="translate(44.4375,-52.0)">
     <path d="M 13.999993000000583 -1.3999997666674889e-2 A 14.0 14.0 0 1 0 14.0 0.0"/>
    </g>
   </g>
   <g style="stroke:rgb(204,0,0);fill:rgb(204,0,0);text-anchor:middle;font-family:Arial;font-size:17.5px">
    <g transform="translate(44.4375,-58.0)">
     <g transform="scale(1 -1)">
      <text>3</text>
     </g>
    </g>
   </g>
   <g style="stroke:rgb(153,153,153);fill:rgb(153,153,153)">
    <g transform="translate(63.875,-92.0)">
     <path d="M 13.999993000000583 -1.3999997666674889e-2 A 14.0 14.0 0 1 0 14.0 0.0"/>
    </g>
   </g>
   <g style="stroke:rgb(0,112,191);stroke-width:2.0">
    <g transform="translate(61.875,-90.0)">
     <line x1="0" y1="0" x2="16.875" y2="-38.0"/>
    </g>
    <g transform="translate(61.875,-90.0)">
     <line x1="0" y1="0" x2="-16.875" y2="-27.0"/>
    </g>
   </g>
   <g style="stroke:rgb(102,178,104);fill:rgb(175,244,175);stroke-width:2.5">
    <g transform="translate(61.875,-90.0)">
     <path d="M 13.999993000000583 -1.3999997666674889e-2 A 14.0 14.0 0 1 0 14.0 0.0"/>
    </g>
   </g>
   <g style="stroke:rgb(204,0,0);fill:rgb(204,0,0);text-anchor:middle;font-family:Arial;font-size:17.5px">
    <g transform="translate(61.875,-96.0)">
     <g transform="scale(1 -1)">
      <text>4</text>
     </g>
    </g>
   </g>
   <g style="stroke:rgb(153,153,153);fill:rgb(153,153,153)">
    <g transform="translate(80.75,-130.0)">
     <path d="M 13.999993000000583 -1.3999997666674889e-2 A 14.0 14.0 0 1 0 14.0 0.0"/>
    </g>
   </g>
   <g style="stroke:rgb(0,112,191);stroke-width:2.0">
    <g transform="translate(78.75,-128.0)">
     <line x1="0" y1="0" x2="15.75" y2="-38.0"/>
    </g>
    <g transform="translate(78.75,-128.0)">
     <line x1="0" y1="0" x2="-15.75" y2="-27.0"/>
    </g>
   </g>
   <g style="stroke:rgb(102,178,104);fill:rgb(175,244,175);stroke-width:2.5">
    <g transform="translate(78.75,-128.0)">
     <path d="M 13.999993000000583 -1.3999997666674889e-2 A 14.0 14.0 0 1 0 14.0 0.0"/>
    </g>
   </g>
   <g style="stroke:rgb(204,0,0);fill:rgb(204,0,0);text-anchor:middle;font-family:Arial;font-size:17.5px">
    <g transform="translate(78.75,-134.0)">
     <g transform="scale(1 -1)">
      <text>5</text>
     </g>
    </g>
   </g>
   <g style="stroke:rgb(153,153,153);fill:rgb(153,153,153)">
    <g transform="translate(96.5,-168.0)">
     <path d="M 13.999993000000583 -1.3999997666674889e-2 A 14.0 14.0 0 1 0 14.0 0.0"/>
    </g>
   </g>
   <g style="stroke:rgb(0,112,191);stroke-width:2.0">
    <g transform="translate(94.5,-166.0)">
     <line x1="0" y1="0" x2="13.5" y2="-38.0"/>
    </g>
    <g transform="translate(94.5,-166.0)">
     <line x1="0" y1="0" x2="-13.5" y2="-27.0"/>
    </g>
   </g>
   <g style="stroke:rgb(102,178,104);fill:rgb(175,244,175);stroke-width:2.5">
    <g transform="translate(94.5,-166.0)">
     <path d="M 13.999993000000583 -1.3999997666674889e-2 A 14.0 14.0 0 1 0 14.0 0.0"/>
    </g>
   </g>
   <g style="stroke:rgb(204,0,0);fill:rgb(204,0,0);text-anchor:middle;font-family:Arial;font-size:17.5px">
    <g transform="translate(94.5,-172.0)">
     <g transform="scale(1 -1)">
      <text>7</text>
     </g>
    </g>
   </g>
   <g style="stroke:rgb(153,153,153);fill:rgb(153,153,153)">
    <g transform="translate(110.0,-206.0)">
     <path d="M 13.999993000000583 -1.3999997666674889e-2 A 14.0 14.0 0 1 0 14.0 0.0"/>
    </g>
   </g>
   <g style="stroke:rgb(0,112,191);stroke-width:2.0">
    <g transform="translate(108.0,-204.0)">
     <line x1="0" y1="0" x2="9.0" y2="-27.0"/>
    </g>
    <g transform="translate(108.0,-204.0)">
     <line x1="0" y1="0" x2="-9.0" y2="-27.0"/>
    </g>
   </g>
   <g style="stroke:rgb(102,178,104);fill:rgb(175,244,175);stroke-width:2.5">
    <g transform="translate(108.0,-204.0)">
     <path d="M 13.999993000000583 -1.3999997666674889e-2 A 14.0 14.0 0 1 0 14.0 0.0"/>
    </g>
   </g>
   <g style="stroke:rgb(204,0,0);fill:rgb(204,0,0);text-anchor:middle;font-family:Arial;font-size:17.5px">
    <g transform="translate(108.0,-210.0)">
     <g transform="scale(1 -1)">
      <text>9</text>
     </g>
    </g>
   </g>
   <g style="stroke:rgb(153,153,153);fill:rgb(153,153,153);stroke-width:1.5">
    <polygon points="115.0,-235.0 115.0,-229.0 121.0,-229.0 121.0,-235.0"/>
   </g>
   <g style="stroke:rgb(102,178,104);fill:rgb(175,244,175);stroke-width:1.5">
    <polygon points="114.0,-234.0 114.0,-228.0 120.0,-228.0 120.0,-234.0"/>
   </g>
   <g style="stroke:rgb(153,153,153);fill:rgb(153,153,153);stroke-width:1.5">
    <polygon points="97.0,-235.0 97.0,-229.0 103.0,-229.0 103.0,-235.0"/>
   </g>
   <g style="stroke:rgb(102,178,104);fill:rgb(175,244,175);stroke-width:1.5">
    <polygon points="96.0,-234.0 96.0,-228.0 102.0,-228.0 102.0,-234.0"/>
   </g>
   <g style="stroke:rgb(153,153,153);fill:rgb(153,153,153);stroke-width:1.5">
    <polygon points="79.0,-197.0 79.0,-191.0 85.0,-191.0 85.0,-197.0"/>
   </g>
   <g style="stroke:rgb(102,178,104);fill:rgb(175,244,175);stroke-width:1.5">
    <polygon points="78.0,-196.0 78.0,-190.0 84.0,-190.0 84.0,-196.0"/>
   </g>
   <g style="stroke:rgb(153,153,153);fill:rgb(153,153,153);stroke-width:1.5">
    <polygon points="61.0,-159.0 61.0,-153.0 67.0,-153.0 67.0,-159.0"/>
   </g>
   <g style="stroke:rgb(102,178,104);fill:rgb(175,244,175);stroke-width:1.5">
    <polygon points="60.0,-158.0 60.0,-152.0 66.0,-152.0 66.0,-158.0"/>
   </g>
   <g style="stroke:rgb(153,153,153);fill:rgb(153,153,153);stroke-width:1.5">
    <polygon points="43.0,-121.0 43.0,-115.0 49.0,-115.0 49.0,-121.0"/>
   </g>
   <g style="stroke:rgb(102,178,104);fill:rgb(175,244,175);stroke-width:1.5">
    <polygon points="42.0,-120.0 42.0,-114.0 48.0,-114.0 48.0,-120.0"/>
   </g>
   <g style="stroke:rgb(153,153,153);fill:rgb(153,153,153);stroke-width:1.5">
    <polygon points="25.0,-83.0 25.0,-77.0 31.0,-77.0 31.0,-83.0"/>
   </g>
   <g style="stroke:rgb(102,178,104);fill:rgb(175,244,175);stroke-width:1.5">
    <polygon points="24.0,-82.0 24.0,-76.0 30.0,-76.0 30.0,-82.0"/>
   </g>
   <g style="stroke:rgb(153,153,153);fill:rgb(153,153,153);stroke-width:1.5">
    <polygon points="7.0,-45.0 7.0,-39.0 13.0,-39.0 13.0,-45.0"/>
   </g>
   <g style="stroke:rgb(102,178,104);fill:rgb(175,244,175);stroke-width:1.5">
    <polygon points="6.0,-44.0 6.0,-38.0 12.0,-38.0 12.0,-44.0"/>
   </g>
  </g>
 </g>
</g>
</svg>